<mxfile host="app.diagrams.net" agent="Mozilla/5.0 (Windows NT 10.0; Win64; x64) AppleWebKit/537.36 (KHTML, like Gecko) Chrome/109.0.0.0 Safari/537.36" version="28.2.7">
  <diagram id="C5RBs43oDa-KdzZeNtuy" name="Page-1">
    <mxGraphModel dx="1426" dy="769" grid="1" gridSize="10" guides="1" tooltips="1" connect="1" arrows="1" fold="1" page="1" pageScale="1" pageWidth="827" pageHeight="1169" math="0" shadow="0">
      <root>
        <mxCell id="WIyWlLk6GJQsqaUBKTNV-0" />
        <mxCell id="WIyWlLk6GJQsqaUBKTNV-1" parent="WIyWlLk6GJQsqaUBKTNV-0" />
        <mxCell id="SPuBUjwBYpP1O54M1DYz-46" value="" style="rounded=0;whiteSpace=wrap;html=1;fillColor=#ffe6cc;strokeColor=#d79b00;" vertex="1" parent="WIyWlLk6GJQsqaUBKTNV-1">
          <mxGeometry x="60" y="170" width="740" height="330" as="geometry" />
        </mxCell>
        <mxCell id="SPuBUjwBYpP1O54M1DYz-13" value="Actor" style="shape=umlActor;verticalLabelPosition=bottom;verticalAlign=top;html=1;outlineConnect=0;" vertex="1" parent="WIyWlLk6GJQsqaUBKTNV-1">
          <mxGeometry x="180" y="80" width="20" height="40" as="geometry" />
        </mxCell>
        <mxCell id="SPuBUjwBYpP1O54M1DYz-15" value="" style="endArrow=classic;html=1;rounded=0;" edge="1" parent="WIyWlLk6GJQsqaUBKTNV-1">
          <mxGeometry width="50" height="50" relative="1" as="geometry">
            <mxPoint x="230" y="110" as="sourcePoint" />
            <mxPoint x="320" y="110" as="targetPoint" />
          </mxGeometry>
        </mxCell>
        <mxCell id="SPuBUjwBYpP1O54M1DYz-16" value="用户提问" style="edgeLabel;html=1;align=center;verticalAlign=middle;resizable=0;points=[];" vertex="1" connectable="0" parent="SPuBUjwBYpP1O54M1DYz-15">
          <mxGeometry x="-0.1593" relative="1" as="geometry">
            <mxPoint as="offset" />
          </mxGeometry>
        </mxCell>
        <mxCell id="SPuBUjwBYpP1O54M1DYz-19" value="" style="edgeStyle=orthogonalEdgeStyle;rounded=0;orthogonalLoop=1;jettySize=auto;html=1;" edge="1" parent="WIyWlLk6GJQsqaUBKTNV-1" source="SPuBUjwBYpP1O54M1DYz-17" target="SPuBUjwBYpP1O54M1DYz-18">
          <mxGeometry relative="1" as="geometry" />
        </mxCell>
        <mxCell id="SPuBUjwBYpP1O54M1DYz-17" value="模型&lt;div&gt;ChatDSL&lt;span style=&quot;background-color: transparent;&quot;&gt;生成&lt;/span&gt;&lt;/div&gt;" style="shape=process;whiteSpace=wrap;html=1;backgroundOutline=1;" vertex="1" parent="WIyWlLk6GJQsqaUBKTNV-1">
          <mxGeometry x="340" y="80" width="120" height="60" as="geometry" />
        </mxCell>
        <mxCell id="SPuBUjwBYpP1O54M1DYz-21" value="" style="edgeStyle=orthogonalEdgeStyle;rounded=0;orthogonalLoop=1;jettySize=auto;html=1;" edge="1" parent="WIyWlLk6GJQsqaUBKTNV-1" source="SPuBUjwBYpP1O54M1DYz-18" target="SPuBUjwBYpP1O54M1DYz-20">
          <mxGeometry relative="1" as="geometry" />
        </mxCell>
        <mxCell id="SPuBUjwBYpP1O54M1DYz-18" value="ChatDsl前处理" style="shape=process;whiteSpace=wrap;html=1;backgroundOutline=1;" vertex="1" parent="WIyWlLk6GJQsqaUBKTNV-1">
          <mxGeometry x="340" y="190" width="120" height="60" as="geometry" />
        </mxCell>
        <mxCell id="SPuBUjwBYpP1O54M1DYz-23" value="" style="edgeStyle=orthogonalEdgeStyle;rounded=0;orthogonalLoop=1;jettySize=auto;html=1;" edge="1" parent="WIyWlLk6GJQsqaUBKTNV-1" source="SPuBUjwBYpP1O54M1DYz-20" target="SPuBUjwBYpP1O54M1DYz-22">
          <mxGeometry relative="1" as="geometry" />
        </mxCell>
        <mxCell id="SPuBUjwBYpP1O54M1DYz-20" value="ChatDsl词法/语法解析" style="whiteSpace=wrap;html=1;" vertex="1" parent="WIyWlLk6GJQsqaUBKTNV-1">
          <mxGeometry x="560" y="190" width="120" height="60" as="geometry" />
        </mxCell>
        <mxCell id="SPuBUjwBYpP1O54M1DYz-33" value="" style="edgeStyle=orthogonalEdgeStyle;rounded=0;orthogonalLoop=1;jettySize=auto;html=1;" edge="1" parent="WIyWlLk6GJQsqaUBKTNV-1" source="SPuBUjwBYpP1O54M1DYz-22" target="SPuBUjwBYpP1O54M1DYz-32">
          <mxGeometry relative="1" as="geometry" />
        </mxCell>
        <mxCell id="SPuBUjwBYpP1O54M1DYz-22" value="任务拆分&lt;div&gt;（一拆多）&lt;/div&gt;" style="whiteSpace=wrap;html=1;" vertex="1" parent="WIyWlLk6GJQsqaUBKTNV-1">
          <mxGeometry x="560" y="290" width="120" height="60" as="geometry" />
        </mxCell>
        <mxCell id="SPuBUjwBYpP1O54M1DYz-35" value="" style="edgeStyle=orthogonalEdgeStyle;rounded=0;orthogonalLoop=1;jettySize=auto;html=1;" edge="1" parent="WIyWlLk6GJQsqaUBKTNV-1" source="SPuBUjwBYpP1O54M1DYz-32" target="SPuBUjwBYpP1O54M1DYz-34">
          <mxGeometry relative="1" as="geometry" />
        </mxCell>
        <mxCell id="SPuBUjwBYpP1O54M1DYz-32" value="查询任务" style="strokeWidth=2;html=1;shape=mxgraph.flowchart.multi-document;whiteSpace=wrap;" vertex="1" parent="WIyWlLk6GJQsqaUBKTNV-1">
          <mxGeometry x="550" y="390" width="140" height="90" as="geometry" />
        </mxCell>
        <mxCell id="SPuBUjwBYpP1O54M1DYz-37" value="" style="edgeStyle=orthogonalEdgeStyle;rounded=0;orthogonalLoop=1;jettySize=auto;html=1;" edge="1" parent="WIyWlLk6GJQsqaUBKTNV-1" source="SPuBUjwBYpP1O54M1DYz-34" target="SPuBUjwBYpP1O54M1DYz-36">
          <mxGeometry relative="1" as="geometry" />
        </mxCell>
        <mxCell id="SPuBUjwBYpP1O54M1DYz-34" value="规则匹配与规则改写" style="shape=process;whiteSpace=wrap;html=1;backgroundOutline=1;strokeWidth=2;" vertex="1" parent="WIyWlLk6GJQsqaUBKTNV-1">
          <mxGeometry x="350" y="405" width="120" height="60" as="geometry" />
        </mxCell>
        <mxCell id="SPuBUjwBYpP1O54M1DYz-39" value="" style="edgeStyle=orthogonalEdgeStyle;rounded=0;orthogonalLoop=1;jettySize=auto;html=1;" edge="1" parent="WIyWlLk6GJQsqaUBKTNV-1" source="SPuBUjwBYpP1O54M1DYz-36" target="SPuBUjwBYpP1O54M1DYz-38">
          <mxGeometry relative="1" as="geometry" />
        </mxCell>
        <mxCell id="SPuBUjwBYpP1O54M1DYz-43" value="" style="edgeStyle=orthogonalEdgeStyle;rounded=0;orthogonalLoop=1;jettySize=auto;html=1;" edge="1" parent="WIyWlLk6GJQsqaUBKTNV-1" source="SPuBUjwBYpP1O54M1DYz-36" target="SPuBUjwBYpP1O54M1DYz-42">
          <mxGeometry relative="1" as="geometry" />
        </mxCell>
        <mxCell id="SPuBUjwBYpP1O54M1DYz-36" value="查数" style="shape=process;whiteSpace=wrap;html=1;backgroundOutline=1;strokeWidth=2;" vertex="1" parent="WIyWlLk6GJQsqaUBKTNV-1">
          <mxGeometry x="130" y="405" width="120" height="60" as="geometry" />
        </mxCell>
        <mxCell id="SPuBUjwBYpP1O54M1DYz-41" value="" style="edgeStyle=orthogonalEdgeStyle;rounded=0;orthogonalLoop=1;jettySize=auto;html=1;" edge="1" parent="WIyWlLk6GJQsqaUBKTNV-1" source="SPuBUjwBYpP1O54M1DYz-38" target="SPuBUjwBYpP1O54M1DYz-40">
          <mxGeometry relative="1" as="geometry" />
        </mxCell>
        <mxCell id="SPuBUjwBYpP1O54M1DYz-38" value="虚标执行引擎" style="shape=document;whiteSpace=wrap;html=1;boundedLbl=1;strokeWidth=2;" vertex="1" parent="WIyWlLk6GJQsqaUBKTNV-1">
          <mxGeometry x="130" y="545" width="120" height="80" as="geometry" />
        </mxCell>
        <mxCell id="SPuBUjwBYpP1O54M1DYz-40" value="" style="strokeWidth=2;html=1;shape=mxgraph.flowchart.database;whiteSpace=wrap;" vertex="1" parent="WIyWlLk6GJQsqaUBKTNV-1">
          <mxGeometry x="384" y="555" width="60" height="60" as="geometry" />
        </mxCell>
        <mxCell id="SPuBUjwBYpP1O54M1DYz-45" value="" style="edgeStyle=orthogonalEdgeStyle;rounded=0;orthogonalLoop=1;jettySize=auto;html=1;" edge="1" parent="WIyWlLk6GJQsqaUBKTNV-1" source="SPuBUjwBYpP1O54M1DYz-42">
          <mxGeometry relative="1" as="geometry">
            <mxPoint x="190" y="150" as="targetPoint" />
          </mxGeometry>
        </mxCell>
        <mxCell id="SPuBUjwBYpP1O54M1DYz-42" value="数据后处理" style="shape=process;whiteSpace=wrap;html=1;backgroundOutline=1;strokeWidth=2;" vertex="1" parent="WIyWlLk6GJQsqaUBKTNV-1">
          <mxGeometry x="130" y="280" width="120" height="60" as="geometry" />
        </mxCell>
        <mxCell id="SPuBUjwBYpP1O54M1DYz-47" value="ChatDSL规则引擎" style="rounded=0;whiteSpace=wrap;html=1;" vertex="1" parent="WIyWlLk6GJQsqaUBKTNV-1">
          <mxGeometry x="60" y="170" width="120" height="30" as="geometry" />
        </mxCell>
      </root>
    </mxGraphModel>
  </diagram>
</mxfile>
